<svg width="18" height="16" viewBox="0 0 18 16" fill="none" xmlns="http://www.w3.org/2000/svg">
<path d="M5.99489 0.412683C5.97004 0.282118 5.8952 0.166413 5.78631 0.0902068C5.67741 0.0140007 5.54307 -0.0166852 5.41189 0.00468344C5.34729 0.0151576 5.28543 0.0384685 5.22998 0.0732405C5.17454 0.108012 5.12661 0.153541 5.08905 0.207137C5.05149 0.260734 5.02504 0.321313 5.01127 0.385299C4.9975 0.449285 4.9967 0.51538 5.00889 0.579683L5.01889 0.632683C3.28989 1.20468 2.27089 2.12168 1.69189 3.14568C1.12689 4.14568 1.01489 5.19568 1.00189 5.99968H0.999893V6.00468L0.329893 6.84168C0.200449 7.00341 0.105906 7.1902 0.0522225 7.39027C-0.00146144 7.59034 -0.0131227 7.79937 0.0179737 8.00417C0.04907 8.20898 0.12225 8.40512 0.232901 8.58024C0.343553 8.75536 0.489278 8.90567 0.660893 9.02168L9.31589 14.8817C10.3915 15.6101 11.6608 15.9995 12.9599 15.9997H15.7499C16.0454 15.9997 16.3379 15.9415 16.6109 15.8284C16.8839 15.7153 17.132 15.5496 17.3409 15.3407C17.5498 15.1317 17.7155 14.8837 17.8286 14.6107C17.9417 14.3377 17.9999 14.0452 17.9999 13.7497C17.9999 12.4897 16.9759 11.5717 15.9299 11.2397C15.3209 11.0467 14.7499 10.7307 14.4159 10.2347L11.3989 5.04468C11.4616 5.03535 11.5239 5.02535 11.5859 5.01468C11.6504 5.0042 11.7122 4.98092 11.7675 4.94621C11.8229 4.91151 11.8708 4.86607 11.9083 4.81259C11.9459 4.7591 11.9723 4.69865 11.9862 4.63478C12 4.57091 12.0009 4.50491 11.9889 4.44068C11.9643 4.30993 11.8895 4.19398 11.7806 4.11757C11.6717 4.04116 11.5372 4.01034 11.4059 4.03168C8.84589 4.46468 6.43689 2.82368 5.99489 0.412683ZM10.2699 5.08968L13.5599 10.7517L13.5759 10.7777C14.0909 11.5527 14.9159 11.9677 15.6289 12.1937C16.1139 12.3477 16.5169 12.6427 16.7589 13.0007H12.9899C12.2922 13.001 11.6104 12.7927 11.0319 12.4027L9.33889 11.2597L10.3709 10.6637C10.5132 10.5816 10.6379 10.4724 10.7379 10.3421C10.8379 10.2119 10.9113 10.0632 10.9538 9.90458C10.9963 9.74597 11.0072 9.58052 10.9858 9.41771C10.9643 9.25489 10.911 9.09789 10.8289 8.95568L10.0609 7.62568C9.97877 7.48351 9.86945 7.3589 9.73916 7.25898C9.60887 7.15906 9.46018 7.08579 9.30157 7.04336C9.14295 7.00092 8.97754 6.99014 8.81476 7.01165C8.65199 7.03315 8.49504 7.08651 8.35289 7.16868L5.61589 8.74868L4.66589 8.10868L5.37589 7.69868C5.51807 7.61656 5.64268 7.50724 5.74259 7.37695C5.84251 7.24666 5.91578 7.09797 5.95822 6.93935C6.00066 6.78074 6.01143 6.61533 5.98993 6.45255C5.96843 6.28978 5.91506 6.13283 5.83289 5.99068L3.73789 2.35968C4.14889 2.06968 4.66089 1.80768 5.29989 1.59268C6.10089 3.60368 8.06489 4.96468 10.2689 5.08868M8.28289 11.7517L8.33289 11.8397L8.37589 11.8147L10.4739 13.2297C11.2174 13.7315 12.0939 13.9996 12.9909 13.9997H16.9749C16.8589 14.5697 16.3549 14.9997 15.7499 14.9997H12.9599C11.8604 14.9997 10.7862 14.6702 9.87589 14.0537L1.22189 8.19368C1.16466 8.15499 1.11607 8.10485 1.07919 8.04643C1.04231 7.98802 1.01793 7.92259 1.00759 7.85429C0.997256 7.78598 1.00119 7.71627 1.01914 7.64956C1.03709 7.58285 1.06867 7.52058 1.11189 7.46668L1.39789 7.10768L5.55089 9.90868L5.56489 9.93268L5.57589 9.92568L8.28289 11.7517ZM8.41689 10.6367L6.53989 9.36968L8.85389 8.03368C8.88232 8.01717 8.91372 8.00642 8.9463 8.00206C8.97888 7.9977 9.012 7.9998 9.04377 8.00826C9.07553 8.01671 9.10532 8.03134 9.13142 8.05132C9.15753 8.0713 9.17944 8.09623 9.19589 8.12468L9.96389 9.45468C9.98036 9.48317 9.99105 9.51462 9.99534 9.54724C9.99963 9.57986 9.99744 9.61301 9.9889 9.64478C9.98035 9.67656 9.96561 9.70633 9.94554 9.7324C9.92546 9.75846 9.90043 9.78031 9.87189 9.79668L8.41689 10.6367ZM2.56289 3.63668C2.67489 3.43668 2.81356 3.23902 2.97889 3.04368L4.96989 6.48968C5.00284 6.54712 5.01166 6.61528 4.99441 6.67921C4.97717 6.74314 4.93526 6.79762 4.87789 6.83068L3.74589 7.48468L1.99989 6.30768V6.17968C1.99989 5.41468 2.08189 4.48868 2.56289 3.63668Z" fill="#37474F"/>
</svg>
