<svg width="10" height="13" viewBox="0 0 10 13" fill="none" xmlns="http://www.w3.org/2000/svg">
<path d="M0 13V1.35535C0 0.968989 0.128611 0.646645 0.385833 0.388322C0.643055 0.13 0.963333 0.00055914 1.34667 0H8.65417C9.0375 0 9.35778 0.129441 9.615 0.388322C9.87222 0.647204 10.0006 0.969549 10 1.35535V13L5 10.8386L0 13ZM0.833333 11.7L5 9.89677L9.16667 11.7V1.35535C9.16667 1.22619 9.11333 1.10766 9.00667 0.999742C8.9 0.891828 8.78222 0.838151 8.65333 0.83871H1.34667C1.21833 0.83871 1.10056 0.892387 0.993333 0.999742C0.886111 1.1071 0.832778 1.22563 0.833333 1.35535V11.7Z" fill="black"/>
</svg>
