<svg width="17" height="17" viewBox="0 0 17 17" fill="none" xmlns="http://www.w3.org/2000/svg">
<path d="M2.68421 0H14.3158C15.0277 0 15.7104 0.2828 16.2138 0.786187C16.7172 1.28957 17 1.97231 17 2.68421V10.7368C17 11.4487 16.7172 12.1315 16.2138 12.6349C15.7104 13.1383 15.0277 13.4211 14.3158 13.4211H10.2089L6.89842 16.7405C6.73737 16.9016 6.51368 17 6.26316 17C6.02586 17 5.79828 16.9057 5.63048 16.7379C5.46269 16.5701 5.36842 16.3426 5.36842 16.1053V13.4211H2.68421C1.97231 13.4211 1.28957 13.1383 0.786187 12.6349C0.2828 12.1315 0 11.4487 0 10.7368V2.68421C0 1.97231 0.2828 1.28957 0.786187 0.786187C1.28957 0.2828 1.97231 0 2.68421 0ZM14.3158 0.894737H2.68421C2.20961 0.894737 1.75445 1.08327 1.41886 1.41886C1.08327 1.75445 0.894737 2.20961 0.894737 2.68421V10.7368C0.894737 11.2114 1.08327 11.6666 1.41886 12.0022C1.75445 12.3378 2.20961 12.5263 2.68421 12.5263H6.26316V16.1053L9.8421 12.5263H14.3158C14.7904 12.5263 15.2455 12.3378 15.5811 12.0022C15.9167 11.6666 16.1053 11.2114 16.1053 10.7368V2.68421C16.1053 2.20961 15.9167 1.75445 15.5811 1.41886C15.2455 1.08327 14.7904 0.894737 14.3158 0.894737Z" fill="black"/>
</svg>
