<svg width="30" height="30" viewBox="0 0 30 30" fill="none" xmlns="http://www.w3.org/2000/svg">
<g clip-path="url(#clip0_6055_17)">
<path d="M15 30C6.71531 30 0 23.2847 0 15C0 6.71531 6.71531 0 15 0C23.2847 0 30 6.71531 30 15C30 18.9782 28.4196 22.7936 25.6066 25.6066C22.7936 28.4196 18.9782 30 15 30ZM15 1.875C7.75125 1.875 1.875 7.75125 1.875 15C1.875 22.2487 7.75125 28.125 15 28.125C22.2487 28.125 28.125 22.2487 28.125 15C28.125 11.519 26.7422 8.18064 24.2808 5.71922C21.8194 3.25781 18.481 1.875 15 1.875Z" fill="#37474F"/>
<path d="M21.5625 14.0625H15.9375V8.4375H14.0625V14.0625H8.4375V15.9375H14.0625V21.5625H15.9375V15.9375H21.5625V14.0625Z" fill="#37474F"/>
</g>
<defs>
<clipPath id="clip0_6055_17">
<rect width="30" height="30" fill="white"/>
</clipPath>
</defs>
</svg>
