<svg width="16" height="16" viewBox="0 0 16 16" fill="none" xmlns="http://www.w3.org/2000/svg">
<path d="M8 4C7.50555 4 7.0222 4.14662 6.61108 4.42133C6.19995 4.69603 5.87952 5.08648 5.6903 5.54329C5.50108 6.00011 5.45157 6.50277 5.54804 6.98773C5.6445 7.47268 5.8826 7.91814 6.23223 8.26777C6.58187 8.6174 7.02732 8.8555 7.51228 8.95196C7.99723 9.04843 8.4999 8.99892 8.95671 8.8097C9.41353 8.62048 9.80397 8.30005 10.0787 7.88893C10.3534 7.4778 10.5 6.99445 10.5 6.5C10.5 5.83696 10.2366 5.20107 9.76777 4.73223C9.29893 4.26339 8.66304 4 8 4Z" fill="#37474F"/>
<path d="M8 1C6.61553 1 5.26216 1.41054 4.11101 2.17971C2.95987 2.94888 2.06266 4.04213 1.53285 5.32122C1.00303 6.6003 0.86441 8.00777 1.13451 9.36563C1.4046 10.7235 2.07129 11.9708 3.05026 12.9497C4.02922 13.9287 5.2765 14.5954 6.63437 14.8655C7.99224 15.1356 9.3997 14.997 10.6788 14.4672C11.9579 13.9373 13.0511 13.0401 13.8203 11.889C14.5895 10.7378 15 9.38447 15 8C14.9979 6.14413 14.2597 4.36489 12.9474 3.05259C11.6351 1.7403 9.85587 1.00212 8 1ZM11.9965 12.463C11.9868 11.807 11.7196 11.1811 11.2526 10.7203C10.7855 10.2596 10.1561 10.0008 9.5 10H6.5C5.84402 10.001 5.21469 10.2597 4.74776 10.7205C4.28083 11.1813 4.01371 11.8071 4.004 12.463C3.09729 11.6534 2.45787 10.5874 2.17042 9.40633C1.88297 8.22523 1.96105 6.98467 2.39432 5.84893C2.82759 4.71319 3.59561 3.73583 4.59669 3.04628C5.59776 2.35673 6.78467 1.98751 8.00025 1.98751C9.21583 1.98751 10.4027 2.35673 11.4038 3.04628C12.4049 3.73583 13.1729 4.71319 13.6062 5.84893C14.0395 6.98467 14.1175 8.22523 13.8301 9.40633C13.5426 10.5874 12.9032 11.6534 11.9965 12.463Z" fill="#37474F"/>
</svg>
