<svg width="27" height="27" viewBox="0 0 27 27" fill="none" xmlns="http://www.w3.org/2000/svg">
<path d="M21.9375 11.2491C21.9375 11.0999 21.8782 10.9568 21.7727 10.8513C21.6672 10.7458 21.5242 10.6866 21.375 10.6866C21.2258 10.6866 21.0827 10.7458 20.9772 10.8513C20.8717 10.9568 20.8125 11.0999 20.8125 11.2491H21.9375ZM6.18748 11.2491C6.18748 11.0999 6.12821 10.9568 6.02273 10.8513C5.91724 10.7458 5.77416 10.6866 5.62498 10.6866C5.47579 10.6866 5.33272 10.7458 5.22723 10.8513C5.12174 10.9568 5.06248 11.0999 5.06248 11.2491H6.18748ZM23.2267 13.8973C23.3324 14.0029 23.4756 14.0623 23.625 14.0623C23.7744 14.0623 23.9176 14.0029 24.0232 13.8973C24.1289 13.7917 24.1882 13.6484 24.1882 13.4991C24.1882 13.3497 24.1289 13.2064 24.0232 13.1008L23.2267 13.8973ZM13.5 3.37405L13.8982 2.9758C13.846 2.92342 13.7839 2.88186 13.7156 2.8535C13.6472 2.82514 13.574 2.81055 13.5 2.81055C13.426 2.81055 13.3527 2.82514 13.2844 2.8535C13.2161 2.88186 13.154 2.92342 13.1017 2.9758L13.5 3.37405ZM2.97673 13.1008C2.87111 13.2064 2.81177 13.3497 2.81177 13.4991C2.81177 13.6484 2.87111 13.7917 2.97673 13.8973C3.08235 14.0029 3.22561 14.0623 3.37498 14.0623C3.52435 14.0623 3.66761 14.0029 3.77323 13.8973L2.97673 13.1008ZM7.87498 24.1866H19.125V23.0616H7.87498V24.1866ZM21.9375 21.3741V11.2491H20.8125V21.3741H21.9375ZM6.18748 21.3741V11.2491H5.06248V21.3741H6.18748ZM24.0232 13.1008L13.8982 2.9758L13.1017 3.7723L23.2267 13.8973L24.0232 13.1008ZM13.1017 2.9758L2.97673 13.1008L3.77323 13.8973L13.8982 3.7723L13.1017 2.9758ZM19.125 24.1866C19.8709 24.1866 20.5863 23.8902 21.1137 23.3628C21.6412 22.8353 21.9375 22.12 21.9375 21.3741H20.8125C20.8125 21.8216 20.6347 22.2508 20.3182 22.5673C20.0018 22.8838 19.5725 23.0616 19.125 23.0616V24.1866ZM7.87498 23.0616C7.42743 23.0616 6.9982 22.8838 6.68174 22.5673C6.36527 22.2508 6.18748 21.8216 6.18748 21.3741H5.06248C5.06248 22.12 5.35879 22.8353 5.88624 23.3628C6.41369 23.8902 7.12906 24.1866 7.87498 24.1866V23.0616Z" fill="#37474F"/>
</svg>
