<svg width="24" height="24" viewBox="0 0 24 24" fill="none" xmlns="http://www.w3.org/2000/svg">
<path d="M11.999 7.37695C10.7726 7.37695 9.59651 7.86412 8.72934 8.73129C7.86217 9.59846 7.375 10.7746 7.375 12.001C7.375 13.2273 7.86217 14.4034 8.72934 15.2706C9.59651 16.1378 10.7726 16.625 11.999 16.625C13.2254 16.625 14.4015 16.1378 15.2687 15.2706C16.1358 14.4034 16.623 13.2273 16.623 12.001C16.623 10.7746 16.1358 9.59846 15.2687 8.73129C14.4015 7.86412 13.2254 7.37695 11.999 7.37695ZM11.999 15.004C11.6045 15.004 11.2139 14.9263 10.8494 14.7753C10.485 14.6243 10.1538 14.403 9.87485 14.1241C9.5959 13.8452 9.37463 13.514 9.22367 13.1495C9.0727 12.7851 8.995 12.3944 8.995 12C8.995 11.6055 9.0727 11.2148 9.22367 10.8504C9.37463 10.4859 9.5959 10.1548 9.87485 9.8758C10.1538 9.59686 10.485 9.37558 10.8494 9.22462C11.2139 9.07365 11.6045 8.99595 11.999 8.99595C12.7957 8.99595 13.5598 9.31245 14.1231 9.8758C14.6865 10.4392 15.003 11.2032 15.003 12C15.003 12.7967 14.6865 13.5607 14.1231 14.1241C13.5598 14.6875 12.7957 15.004 11.999 15.004Z" fill="#37474F"/>
<path d="M16.806 8.28491C17.4014 8.28491 17.884 7.80227 17.884 7.20691C17.884 6.61154 17.4014 6.12891 16.806 6.12891C16.2107 6.12891 15.728 6.61154 15.728 7.20691C15.728 7.80227 16.2107 8.28491 16.806 8.28491Z" fill="#37474F"/>
<path d="M20.533 6.11186C20.3017 5.51388 19.948 4.97085 19.4946 4.51759C19.0412 4.06433 18.498 3.71086 17.9 3.47986C17.2003 3.2171 16.4611 3.07508 15.714 3.05986C14.751 3.01786 14.446 3.00586 12.004 3.00586C9.56195 3.00586 9.24895 3.00586 8.29395 3.05986C7.54744 3.07531 6.80895 3.21733 6.10995 3.47986C5.51189 3.71086 4.96872 4.06433 4.51529 4.51759C4.06186 4.97085 3.70818 5.51388 3.47695 6.11186C3.21454 6.81155 3.07286 7.55073 3.05795 8.29786C3.01495 9.25986 3.00195 9.56486 3.00195 12.0079C3.00195 14.4509 3.00195 14.7609 3.05795 15.7179C3.07295 16.4659 3.21395 17.2039 3.47695 17.9049C3.70829 18.5029 4.06212 19.046 4.51573 19.4993C4.96934 19.9526 5.5127 20.306 6.11095 20.5369C6.80848 20.8098 7.54736 20.9619 8.29595 20.9869C9.25895 21.0289 9.56395 21.0419 12.006 21.0419C14.448 21.0419 14.761 21.0419 15.716 20.9869C16.4631 20.972 17.2023 20.8303 17.902 20.5679C18.5001 20.3367 19.0433 19.9831 19.4968 19.5297C19.9502 19.0763 20.3038 18.533 20.535 17.9349C20.798 17.2349 20.939 16.4969 20.954 15.7489C20.997 14.7869 21.01 14.4819 21.01 12.0389C21.01 9.59586 21.01 9.28586 20.954 8.32886C20.9419 7.57117 20.7995 6.82121 20.533 6.11186ZM19.315 15.6439C19.3094 16.2202 19.2041 16.7913 19.004 17.3319C18.8531 17.7203 18.6229 18.0731 18.3282 18.3677C18.0334 18.6623 17.6805 18.8922 17.292 19.0429C16.7571 19.241 16.1923 19.3462 15.622 19.3539C14.672 19.3979 14.404 19.4089 11.968 19.4089C9.52995 19.4089 9.28095 19.4089 8.31295 19.3539C7.74296 19.3461 7.17849 19.2409 6.64395 19.0429C6.25411 18.893 5.89984 18.6635 5.60384 18.3688C5.30783 18.0742 5.0766 17.721 4.92495 17.3319C4.72877 16.7968 4.62364 16.2327 4.61395 15.6629C4.57095 14.7129 4.56095 14.4449 4.56095 12.0089C4.56095 9.57286 4.56095 9.32286 4.61395 8.35386C4.61966 7.77781 4.72488 7.20708 4.92495 6.66686C5.22995 5.87786 5.85495 5.25686 6.64395 4.95486C7.17849 4.75681 7.74296 4.65163 8.31295 4.64386C9.26395 4.60086 9.53095 4.58886 11.968 4.58886C14.405 4.58886 14.655 4.58886 15.622 4.64386C16.1923 4.65151 16.7571 4.7567 17.292 4.95486C17.6806 5.10562 18.0336 5.33572 18.3283 5.63048C18.6231 5.92525 18.8532 6.27821 19.004 6.66686C19.2001 7.20191 19.3053 7.76606 19.315 8.33586C19.358 9.28686 19.369 9.55386 19.369 11.9909C19.369 14.4279 19.369 14.6889 19.326 15.6449L19.315 15.6439Z" fill="#37474F"/>
</svg>
