<svg width="21" height="17" viewBox="0 0 21 17" fill="none" xmlns="http://www.w3.org/2000/svg">
<path d="M10.0795 2.82047L10.5 3.47431L10.9205 2.82047C11.8295 1.40724 13.4358 0.5 15.2727 0.5C18.1516 0.5 20.5 2.83114 20.5 5.66667C20.5 6.93129 19.9114 8.24362 18.9577 9.5304C18.0079 10.8118 16.7305 12.0213 15.4354 13.0697C14.1428 14.1161 12.8476 14.99 11.8742 15.6029C11.388 15.9091 10.9833 16.1493 10.7009 16.3126C10.6252 16.3564 10.5582 16.3946 10.5009 16.4271C10.4435 16.3943 10.3764 16.3557 10.3005 16.3114C10.018 16.1469 9.6132 15.905 9.12691 15.597C8.15337 14.9804 6.85799 14.1019 5.56513 13.0524C4.26974 12.0009 2.99204 10.7897 2.04208 9.51016C1.08784 8.22483 0.5 6.91866 0.5 5.66667C0.5 2.83114 2.84839 0.5 5.72727 0.5C7.56417 0.5 9.17052 1.40724 10.0795 2.82047Z" fill="white" stroke="#FF9F1C"/>
</svg>
