<svg width="17" height="17" viewBox="0 0 17 17" fill="none" xmlns="http://www.w3.org/2000/svg">
<path d="M10.2127 6.78772C9.89792 6.47281 9.52416 6.223 9.11279 6.05257C8.70142 5.88213 8.2605 5.79441 7.81522 5.79441C7.36995 5.79441 6.92903 5.88213 6.51766 6.05257C6.10629 6.223 5.73253 6.47281 5.41772 6.78772L1.99272 10.2137C1.357 10.8496 0.999906 11.7119 1 12.6111C1.00009 13.5102 1.35737 14.3725 1.99322 15.0082C2.62908 15.6439 3.49143 16.001 4.39058 16.0009C5.28972 16.0009 6.152 15.6436 6.78772 15.0077L7.10872 14.7037M6.78772 10.2137C7.10253 10.5286 7.47629 10.7784 7.88766 10.9489C8.29903 11.1193 8.73995 11.207 9.18522 11.207C9.6305 11.207 10.0714 11.1193 10.4828 10.9489C10.8942 10.7784 11.2679 10.5286 11.5827 10.2137L15.0067 6.78772C15.6426 6.152 15.9999 5.28972 15.9999 4.39058C16 3.49143 15.6429 2.62908 15.0072 1.99322C14.3715 1.35737 13.5092 1.00009 12.6101 1C11.7109 0.999906 10.8486 1.357 10.2127 1.99272L9.18472 2.95372" stroke="#37474F" stroke-width="2" stroke-linecap="round" stroke-linejoin="round"/>
</svg>
