<svg width="16" height="8" viewBox="0 0 16 8" fill="none" xmlns="http://www.w3.org/2000/svg">
<path d="M3.654 1.116V0.116H16V1.116H3.654ZM3.654 4.5V3.5H16V4.5H3.654ZM3.654 7.885V6.885H16V7.885H3.654ZM0.616 1.23C0.441334 1.23 0.295 1.169 0.177 1.047C0.059 0.926333 0 0.776 0 0.596C0 0.427333 0.059 0.286 0.177 0.172C0.295 0.0573333 0.441334 0 0.616 0C0.79 0 0.936 0.0573333 1.054 0.172C1.172 0.285333 1.231 0.426666 1.231 0.596C1.231 0.776 1.172 0.926667 1.054 1.048C0.936 1.17 0.789666 1.231 0.615 1.231M0.615 4.596C0.441 4.596 0.295 4.539 0.177 4.425C0.059 4.311 0 4.16933 0 4C0 3.80667 0.059 3.65267 0.177 3.538C0.295 3.42333 0.441334 3.36567 0.616 3.365C0.790667 3.36433 0.936667 3.42167 1.054 3.537C1.17133 3.65233 1.23033 3.80667 1.231 4C1.231 4.16867 1.172 4.31033 1.054 4.425C0.936 4.53967 0.789666 4.59667 0.615 4.596ZM0.615 8C0.441 8 0.295 7.93933 0.177 7.818C0.059 7.696 0 7.54533 0 7.366C0 7.19667 0.059 7.055 0.177 6.941C0.295 6.82633 0.441334 6.769 0.616 6.769C0.79 6.769 0.936 6.82633 1.054 6.941C1.172 7.05567 1.231 7.19733 1.231 7.366C1.231 7.54533 1.172 7.696 1.054 7.818C0.936 7.93933 0.789666 8 0.615 8Z" fill="#37474F"/>
</svg>
