<svg xmlns="http://www.w3.org/2000/svg" xmlns:xlink="http://www.w3.org/1999/xlink" width="1920" zoomAndPan="magnify" viewBox="0 0 1440 809.999993" height="1080" preserveAspectRatio="xMidYMid meet" version="1.0"><defs><g/><clipPath id="a171ab95d2"><path d="M 592 279 L 933 279 L 933 333 L 592 333 Z M 592 279 " clip-rule="nonzero"/></clipPath><clipPath id="4251f87c49"><path d="M 608.183594 238.671875 L 932.929688 318.855469 L 917.289062 382.203125 L 592.542969 302.015625 Z M 608.183594 238.671875 " clip-rule="nonzero"/></clipPath><clipPath id="b7da789d2f"><path d="M 608.183594 238.671875 L 932.929688 318.855469 L 917.289062 382.203125 L 592.542969 302.015625 Z M 608.183594 238.671875 " clip-rule="nonzero"/></clipPath><clipPath id="977f44659d"><path d="M 618 292 L 748 292 L 748 309 L 618 309 Z M 618 292 " clip-rule="nonzero"/></clipPath><clipPath id="c2042be767"><path d="M 608.183594 238.671875 L 932.929688 318.855469 L 917.289062 382.203125 L 592.542969 302.015625 Z M 608.183594 238.671875 " clip-rule="nonzero"/></clipPath><clipPath id="5dd2bde2cd"><path d="M 608.183594 238.671875 L 932.929688 318.855469 L 917.289062 382.203125 L 592.542969 302.015625 Z M 608.183594 238.671875 " clip-rule="nonzero"/></clipPath></defs><g fill="#00a8e8" fill-opacity="1"><g transform="translate(106.139034, 469.3507)"><g><path d="M 88.609375 -147.390625 C 103.867188 -147.390625 115.488281 -143.925781 123.46875 -137 C 131.445312 -130.070312 135.4375 -121.082031 135.4375 -110.03125 C 135.4375 -106.800781 135.15625 -103.789062 134.59375 -101 C 132.914062 -91.195312 128.644531 -82.445312 121.78125 -74.75 C 114.925781 -67.050781 105.757812 -61.59375 94.28125 -58.375 L 118 0 L 77.484375 0 L 56.6875 -55.640625 L 48.078125 -55.640625 L 38.21875 0 L 2.3125 0 L 28.34375 -147.390625 Z M 97.84375 -99.53125 C 98.125 -101.769531 98.265625 -103.238281 98.265625 -103.9375 C 98.265625 -108.414062 96.828125 -111.878906 93.953125 -114.328125 C 91.085938 -116.773438 86.859375 -118 81.265625 -118 L 59 -118 L 52.5 -81.046875 L 74.75 -81.046875 C 81.332031 -81.046875 86.546875 -82.65625 90.390625 -85.875 C 94.242188 -89.09375 96.726562 -93.644531 97.84375 -99.53125 Z M 97.84375 -99.53125 "/></g></g></g><g fill="#00a8e8" fill-opacity="1"><g transform="translate(253.112716, 469.3507)"><g><path d="M 138.578125 -117.15625 L 118 0 L 82.09375 0 L 84.828125 -15.953125 C 80.203125 -10.773438 74.566406 -6.609375 67.921875 -3.453125 C 61.273438 -0.304688 54.171875 1.265625 46.609375 1.265625 C 34.847656 1.265625 25.609375 -2.054688 18.890625 -8.703125 C 12.171875 -15.359375 8.8125 -24.632812 8.8125 -36.53125 C 8.8125 -41.007812 9.164062 -45.070312 9.875 -48.71875 L 22.046875 -117.15625 L 57.734375 -117.15625 L 46.609375 -53.546875 C 46.191406 -51.304688 45.984375 -49.132812 45.984375 -47.03125 C 45.984375 -41.15625 47.628906 -36.640625 50.921875 -33.484375 C 54.210938 -30.335938 58.796875 -28.765625 64.671875 -28.765625 C 71.390625 -28.765625 77.09375 -30.757812 81.78125 -34.75 C 86.46875 -38.738281 89.582031 -44.441406 91.125 -51.859375 L 102.671875 -117.15625 Z M 138.578125 -117.15625 "/></g></g></g><g fill="#00a8e8" fill-opacity="1"><g transform="translate(404.705529, 469.3507)"><g><path d="M 94.484375 -118.421875 C 106.242188 -118.421875 115.484375 -115.128906 122.203125 -108.546875 C 128.921875 -101.972656 132.28125 -92.804688 132.28125 -81.046875 C 132.28125 -77.128906 131.859375 -72.929688 131.015625 -68.453125 L 118.84375 0 L 83.140625 0 L 94.484375 -63.625 C 94.898438 -66 95.109375 -68.097656 95.109375 -69.921875 C 95.109375 -75.796875 93.460938 -80.34375 90.171875 -83.5625 C 86.890625 -86.78125 82.304688 -88.390625 76.421875 -88.390625 C 69.429688 -88.390625 63.554688 -86.21875 58.796875 -81.875 C 54.035156 -77.539062 50.953125 -71.457031 49.546875 -63.625 L 49.546875 -64.671875 L 38.21875 0 L 2.3125 0 L 22.890625 -117.15625 L 58.796875 -117.15625 L 56.0625 -101.421875 C 60.675781 -106.597656 66.304688 -110.722656 72.953125 -113.796875 C 79.609375 -116.878906 86.785156 -118.421875 94.484375 -118.421875 Z M 94.484375 -118.421875 "/></g></g></g><g fill="#00a8e8" fill-opacity="1"><g transform="translate(556.298356, 469.3507)"><g><path d="M 135.84375 -109.1875 C 134.3125 -100.507812 130.742188 -93.300781 125.140625 -87.5625 C 119.546875 -81.820312 112.828125 -77.832031 104.984375 -75.59375 C 111.984375 -74.050781 117.507812 -70.617188 121.5625 -65.296875 C 125.625 -59.984375 127.65625 -53.753906 127.65625 -46.609375 C 127.65625 -44.367188 127.445312 -42.203125 127.03125 -40.109375 C 124.925781 -27.785156 118.90625 -18.019531 108.96875 -10.8125 C 99.03125 -3.601562 86.363281 0 70.96875 0 L 2.3125 0 L 28.34375 -147.390625 L 94.703125 -147.390625 C 107.992188 -147.390625 118.28125 -144.660156 125.5625 -139.203125 C 132.84375 -133.742188 136.484375 -126.1875 136.484375 -116.53125 C 136.484375 -114.15625 136.269531 -111.707031 135.84375 -109.1875 Z M 77.0625 -87.5625 C 83.082031 -87.5625 87.910156 -88.890625 91.546875 -91.546875 C 95.179688 -94.203125 97.421875 -98.050781 98.265625 -103.09375 C 98.398438 -103.9375 98.46875 -105.054688 98.46875 -106.453125 C 98.46875 -110.515625 97.140625 -113.628906 94.484375 -115.796875 C 91.828125 -117.960938 87.910156 -119.046875 82.734375 -119.046875 L 59.21875 -119.046875 L 53.75 -87.5625 Z M 91.34375 -44.9375 C 91.613281 -46.613281 91.75 -47.875 91.75 -48.71875 C 91.75 -52.769531 90.28125 -55.953125 87.34375 -58.265625 C 84.40625 -60.578125 80.347656 -61.734375 75.171875 -61.734375 L 49.125 -61.734375 L 43.25 -28.5625 L 69.703125 -28.5625 C 75.867188 -28.5625 80.769531 -29.957031 84.40625 -32.75 C 88.039062 -35.550781 90.351562 -39.613281 91.34375 -44.9375 Z M 91.34375 -44.9375 "/></g></g></g><g fill="#00a8e8" fill-opacity="1"><g transform="translate(704.741769, 469.3507)"><g><path d="M 55.015625 -95.953125 C 60.472656 -102.953125 66.734375 -108.445312 73.796875 -112.4375 C 80.867188 -116.425781 88.253906 -118.421875 95.953125 -118.421875 L 89.234375 -80.421875 L 79.375 -80.421875 C 70.414062 -80.421875 63.34375 -78.492188 58.15625 -74.640625 C 52.976562 -70.796875 49.550781 -64.039062 47.875 -54.375 L 38.21875 0 L 2.3125 0 L 22.890625 -117.15625 L 58.796875 -117.15625 Z M 55.015625 -95.953125 "/></g></g></g><g fill="#00a8e8" fill-opacity="1"><g transform="translate(804.683887, 469.3507)"><g><path d="M 75.375 -118.84375 C 90.5 -118.84375 102.503906 -114.75 111.390625 -106.5625 C 120.273438 -98.375 124.71875 -87.207031 124.71875 -73.0625 C 124.71875 -68.445312 124.367188 -64.320312 123.671875 -60.6875 C 123.109375 -57.46875 122.269531 -54.035156 121.15625 -50.390625 L 39.890625 -50.390625 C 39.753906 -49.546875 39.6875 -48.21875 39.6875 -46.40625 C 39.6875 -40.25 41.363281 -35.554688 44.71875 -32.328125 C 48.082031 -29.109375 52.5625 -27.5 58.15625 -27.5 C 67.113281 -27.5 73.972656 -31.28125 78.734375 -38.84375 L 116.953125 -38.84375 C 111.910156 -26.945312 103.71875 -17.21875 92.375 -9.65625 C 81.039062 -2.09375 68.304688 1.6875 54.171875 1.6875 C 39.054688 1.6875 26.984375 -2.507812 17.953125 -10.90625 C 8.921875 -19.3125 4.40625 -30.722656 4.40625 -45.140625 C 4.40625 -49.484375 4.828125 -53.960938 5.671875 -58.578125 C 7.765625 -70.753906 12.101562 -81.390625 18.6875 -90.484375 C 25.269531 -99.585938 33.457031 -106.585938 43.25 -111.484375 C 53.050781 -116.390625 63.757812 -118.84375 75.375 -118.84375 Z M 88.390625 -68.65625 C 88.671875 -70.613281 88.8125 -71.945312 88.8125 -72.65625 C 88.8125 -78.25 87.0625 -82.550781 83.5625 -85.5625 C 80.0625 -88.570312 75.441406 -90.078125 69.703125 -90.078125 C 63.546875 -90.078125 58.125 -88.222656 53.4375 -84.515625 C 48.75 -80.804688 45.351562 -75.519531 43.25 -68.65625 Z M 88.390625 -68.65625 "/></g></g></g><g fill="#00a8e8" fill-opacity="1"><g transform="translate(944.09892, 469.3507)"><g><path d="M 75.375 -118.84375 C 90.5 -118.84375 102.503906 -114.75 111.390625 -106.5625 C 120.273438 -98.375 124.71875 -87.207031 124.71875 -73.0625 C 124.71875 -68.445312 124.367188 -64.320312 123.671875 -60.6875 C 123.109375 -57.46875 122.269531 -54.035156 121.15625 -50.390625 L 39.890625 -50.390625 C 39.753906 -49.546875 39.6875 -48.21875 39.6875 -46.40625 C 39.6875 -40.25 41.363281 -35.554688 44.71875 -32.328125 C 48.082031 -29.109375 52.5625 -27.5 58.15625 -27.5 C 67.113281 -27.5 73.972656 -31.28125 78.734375 -38.84375 L 116.953125 -38.84375 C 111.910156 -26.945312 103.71875 -17.21875 92.375 -9.65625 C 81.039062 -2.09375 68.304688 1.6875 54.171875 1.6875 C 39.054688 1.6875 26.984375 -2.507812 17.953125 -10.90625 C 8.921875 -19.3125 4.40625 -30.722656 4.40625 -45.140625 C 4.40625 -49.484375 4.828125 -53.960938 5.671875 -58.578125 C 7.765625 -70.753906 12.101562 -81.390625 18.6875 -90.484375 C 25.269531 -99.585938 33.457031 -106.585938 43.25 -111.484375 C 53.050781 -116.390625 63.757812 -118.84375 75.375 -118.84375 Z M 88.390625 -68.65625 C 88.671875 -70.613281 88.8125 -71.945312 88.8125 -72.65625 C 88.8125 -78.25 87.0625 -82.550781 83.5625 -85.5625 C 80.0625 -88.570312 75.441406 -90.078125 69.703125 -90.078125 C 63.546875 -90.078125 58.125 -88.222656 53.4375 -84.515625 C 48.75 -80.804688 45.351562 -75.519531 43.25 -68.65625 Z M 88.390625 -68.65625 "/></g></g></g><g fill="#00a8e8" fill-opacity="1"><g transform="translate(1083.513953, 469.3507)"><g><path d="M 41.15625 -29.609375 L 92.171875 -29.609375 L 86.71875 0 L -4.203125 0 L 1.046875 -28.5625 L 60.046875 -87.5625 L 11.765625 -87.5625 L 17 -117.15625 L 106.25 -117.15625 L 101.203125 -88.609375 Z M 41.15625 -29.609375 "/></g></g></g><g fill="#ff9f1c" fill-opacity="1"><g transform="translate(1197.740545, 469.3507)"><g><path d="M 75.375 -118.84375 C 90.5 -118.84375 102.503906 -114.75 111.390625 -106.5625 C 120.273438 -98.375 124.71875 -87.207031 124.71875 -73.0625 C 124.71875 -68.445312 124.367188 -64.320312 123.671875 -60.6875 C 123.109375 -57.46875 122.269531 -54.035156 121.15625 -50.390625 L 39.890625 -50.390625 C 39.753906 -49.546875 39.6875 -48.21875 39.6875 -46.40625 C 39.6875 -40.25 41.363281 -35.554688 44.71875 -32.328125 C 48.082031 -29.109375 52.5625 -27.5 58.15625 -27.5 C 67.113281 -27.5 73.972656 -31.28125 78.734375 -38.84375 L 116.953125 -38.84375 C 111.910156 -26.945312 103.71875 -17.21875 92.375 -9.65625 C 81.039062 -2.09375 68.304688 1.6875 54.171875 1.6875 C 39.054688 1.6875 26.984375 -2.507812 17.953125 -10.90625 C 8.921875 -19.3125 4.40625 -30.722656 4.40625 -45.140625 C 4.40625 -49.484375 4.828125 -53.960938 5.671875 -58.578125 C 7.765625 -70.753906 12.101562 -81.390625 18.6875 -90.484375 C 25.269531 -99.585938 33.457031 -106.585938 43.25 -111.484375 C 53.050781 -116.390625 63.757812 -118.84375 75.375 -118.84375 Z M 88.390625 -68.65625 C 88.671875 -70.613281 88.8125 -71.945312 88.8125 -72.65625 C 88.8125 -78.25 87.0625 -82.550781 83.5625 -85.5625 C 80.0625 -88.570312 75.441406 -90.078125 69.703125 -90.078125 C 63.546875 -90.078125 58.125 -88.222656 53.4375 -84.515625 C 48.75 -80.804688 45.351562 -75.519531 43.25 -68.65625 Z M 88.390625 -68.65625 "/></g></g></g><g clip-path="url(#a171ab95d2)"><g clip-path="url(#4251f87c49)"><g clip-path="url(#b7da789d2f)"><path fill="#00a8e8" d="M 933.289062 318.976562 L 933.261719 318.976562 C 906.289062 325.34375 891.386719 328.527344 888.554688 328.53125 C 877.617188 329.304688 865.925781 328.832031 853.476562 327.105469 C 844.820312 325.921875 834.429688 323.199219 822.304688 318.9375 C 818.75 317.671875 813.878906 315.660156 807.683594 312.90625 L 768.628906 295.308594 C 758.050781 290.957031 748.136719 287.683594 738.890625 285.484375 C 726.480469 282.457031 714.953125 280.582031 704.308594 279.859375 C 691.839844 279.527344 680.304688 279.902344 669.710938 280.980469 C 639.859375 284.117188 614.140625 291.140625 592.554688 302.050781 C 628 286.984375 665.304688 280.320312 704.460938 282.0625 C 717.523438 282.570312 733.285156 285.597656 751.746094 291.144531 C 756.957031 292.859375 762.699219 295.046875 768.976562 297.703125 C 801.277344 312.253906 819.558594 320.304688 823.824219 321.863281 C 833.328125 325.492188 843.898438 328.273438 855.535156 330.207031 C 870.367188 332.371094 882.511719 332.6875 891.960938 331.160156 C 907.035156 328.628906 920.8125 324.566406 933.289062 318.976562 " fill-opacity="1" fill-rule="nonzero"/></g></g></g><g clip-path="url(#977f44659d)"><g clip-path="url(#c2042be767)"><g clip-path="url(#5dd2bde2cd)"><path fill="#00a8e8" d="M 716.59375 297.492188 L 715.539062 297.234375 C 697.652344 292.988281 679.949219 291.664062 662.433594 293.265625 C 655.167969 293.875 646.863281 295.558594 637.527344 298.316406 C 630.5625 300.410156 624.117188 303.191406 618.183594 306.667969 C 632.046875 301.6875 642.480469 298.566406 649.492188 297.304688 C 659.1875 295.480469 669.25 294.664062 679.675781 294.859375 C 689.484375 295.019531 699.121094 296.050781 708.585938 297.957031 C 718.203125 299.917969 731.207031 303.351562 747.59375 308.257812 L 736.085938 303.640625 C 732.910156 302.4375 730.953125 301.71875 730.214844 301.484375 C 725.550781 299.902344 721.011719 298.570312 716.59375 297.492188 " fill-opacity="1" fill-rule="nonzero"/></g></g></g></svg>