<svg width="20" height="16" viewBox="0 0 20 16" fill="none" xmlns="http://www.w3.org/2000/svg">
<path d="M17.37 0H2.5C1.83696 0 1.20107 0.263392 0.732233 0.732233C0.263392 1.20107 0 1.83696 0 2.5V13.37C0 14.033 0.263392 14.6689 0.732233 15.1378C1.20107 15.6066 1.83696 15.87 2.5 15.87H17.37C18.033 15.87 18.6689 15.6066 19.1378 15.1378C19.6066 14.6689 19.87 14.033 19.87 13.37V2.5C19.87 1.83696 19.6066 1.20107 19.1378 0.732233C18.6689 0.263392 18.033 0 17.37 0ZM2.5 1H17.37C17.7484 0.999147 18.113 1.14233 18.3898 1.40048C18.6665 1.65863 18.8346 2.01241 18.86 2.39C16.39 3.71 13.91 5.02 11.43 6.34C11.095 6.55121 10.74 6.72875 10.37 6.87C10.0799 6.92744 9.78091 6.92237 9.49294 6.85512C9.20496 6.78787 8.93464 6.65999 8.7 6.48C7.28 5.73 5.86 4.97 4.45 4.22C3.31 3.62 2.15 3.01 1.01 2.4C1.03296 2.02063 1.20002 1.66437 1.477 1.40412C1.75398 1.14387 2.11994 0.999306 2.5 1ZM18.87 13.37C18.87 13.7678 18.712 14.1494 18.4307 14.4307C18.1494 14.712 17.7678 14.87 17.37 14.87H2.5C2.10218 14.87 1.72064 14.712 1.43934 14.4307C1.15804 14.1494 1 13.7678 1 13.37V3.535C3.36 4.775 5.71 6.035 8.07 7.285C8.49153 7.54374 8.94548 7.74549 9.42 7.885C10.1144 7.99809 10.8261 7.85218 11.42 7.475C12.87 6.715 14.31 5.945 15.76 5.185C16.8 4.625 17.83 4.085 18.87 3.535V13.37Z" fill="#37474F"/>
</svg>
