<svg width="23" height="23" viewBox="0 0 23 23" fill="none" xmlns="http://www.w3.org/2000/svg">
<path d="M20.5912 19.1366C19.1708 16.6821 16.9408 14.9598 14.3497 14.2294C15.6095 13.589 16.6168 12.543 17.2094 11.2601C17.8019 9.97717 17.9451 8.53207 17.6159 7.1578C17.2866 5.78354 16.5042 4.56021 15.3946 3.68507C14.285 2.80993 12.913 2.33398 11.4999 2.33398C10.0867 2.33398 8.71476 2.80993 7.6052 3.68507C6.49563 4.56021 5.71314 5.78354 5.3839 7.1578C5.05466 8.53207 5.19786 9.97717 5.7904 11.2601C6.38295 12.543 7.39031 13.589 8.65005 14.2294C6.05895 14.9589 3.82903 16.6812 2.4086 19.1366C2.3696 19.198 2.34341 19.2666 2.33161 19.3383C2.31981 19.4101 2.32264 19.4834 2.33994 19.5541C2.35724 19.6247 2.38864 19.6911 2.43226 19.7492C2.47588 19.8074 2.53081 19.8561 2.59375 19.8925C2.6567 19.9289 2.72635 19.9522 2.79852 19.9609C2.8707 19.9697 2.9439 19.9638 3.01372 19.9435C3.08354 19.9233 3.14855 19.8891 3.20482 19.8431C3.2611 19.797 3.30748 19.7401 3.34118 19.6757C5.06708 16.6938 8.11638 14.914 11.4999 14.914C14.8834 14.914 17.9327 16.6938 19.6586 19.6757C19.6923 19.7401 19.7387 19.797 19.795 19.8431C19.8512 19.8891 19.9162 19.9233 19.9861 19.9435C20.0559 19.9638 20.1291 19.9697 20.2013 19.9609C20.2734 19.9522 20.3431 19.9289 20.406 19.8925C20.469 19.8561 20.5239 19.8074 20.5675 19.7492C20.6111 19.6911 20.6425 19.6247 20.6598 19.5541C20.6771 19.4834 20.68 19.4101 20.6682 19.3383C20.6564 19.2666 20.6302 19.198 20.5912 19.1366ZM6.28895 8.6249C6.28895 7.59428 6.59457 6.5868 7.16716 5.72986C7.73974 4.87293 8.55358 4.20503 9.50575 3.81062C10.4579 3.41622 11.5057 3.31303 12.5165 3.51409C13.5273 3.71516 14.4558 4.21145 15.1846 4.94021C15.9133 5.66898 16.4096 6.59748 16.6107 7.6083C16.8118 8.61912 16.7086 9.66687 16.3142 10.619C15.9198 11.5712 15.2519 12.3851 14.3949 12.9576C13.538 13.5302 12.5305 13.8358 11.4999 13.8358C10.1184 13.8342 8.79392 13.2846 7.81704 12.3078C6.84016 11.3309 6.29062 10.0064 6.28895 8.6249Z" fill="#37474F"/>
</svg>
