<svg width="37" height="37" viewBox="0 0 37 37" fill="none" xmlns="http://www.w3.org/2000/svg">
<path d="M18.5 37C8.28222 37 0 28.7178 0 18.5C0 8.28222 8.28222 0 18.5 0C28.7178 0 37 8.28222 37 18.5C37 23.4065 35.0509 28.1121 31.5815 31.5815C28.1121 35.0509 23.4065 37 18.5 37ZM18.5 2.3125C9.55988 2.3125 2.3125 9.55988 2.3125 18.5C2.3125 27.4401 9.55988 34.6875 18.5 34.6875C27.4401 34.6875 34.6875 27.4401 34.6875 18.5C34.6875 14.2068 32.982 10.0895 29.9463 7.05371C26.9105 4.01796 22.7932 2.3125 18.5 2.3125Z" fill="#37474F"/>
<path d="M26.5938 17.3438H19.6562V10.4062H17.3438V17.3438H10.4062V19.6562H17.3438V26.5938H19.6562V19.6562H26.5938V17.3438Z" fill="#37474F"/>
</svg>
