<svg width="17" height="19" viewBox="0 0 17 19" fill="none" xmlns="http://www.w3.org/2000/svg">
<path d="M9.40023 7.962L4.61423 1.252C4.55873 1.17404 4.48538 1.11049 4.40031 1.06666C4.31525 1.02282 4.22093 0.999963 4.12523 1H1.59923C1.48913 1.00014 1.38119 1.03057 1.28724 1.08797C1.19328 1.14536 1.11692 1.2275 1.06653 1.32539C1.01614 1.42328 0.993657 1.53315 1.00154 1.64296C1.00942 1.75278 1.04737 1.85831 1.11123 1.948L7.23823 10.538M9.40023 7.962L15.5272 16.552C15.5911 16.6417 15.629 16.7472 15.6369 16.857C15.6448 16.9669 15.6223 17.0767 15.5719 17.1746C15.5215 17.2725 15.4452 17.3546 15.3512 17.412C15.2573 17.4694 15.1493 17.4999 15.0392 17.5H12.5132C12.4175 17.5 12.3232 17.4772 12.2381 17.4333C12.1531 17.3895 12.0797 17.326 12.0242 17.248L7.23823 10.538M9.40023 7.962L15.2422 1M7.23823 10.538L1.39623 17.5" stroke="#37474F" stroke-width="1.5" stroke-linecap="round" stroke-linejoin="round"/>
</svg>
